#N canvas 1026 494 495 272 10;
#X obj 3 -53 r \$0-input;
#X obj 3 77 soundfonts;
#X obj 26 175 dac~;
#X obj 3 47 list trim;
#X obj 82 72 rmstodb;
#X text 144 127 <- included in vanilla \, also included in pd-for-libpd
;
#X obj 82 -48 r \$0-reverb.level;
#X text 195 -48 Reverb level goes from 0 to 127;
#X obj 82 42 / 127;
#X obj 21 128 rev3~ 100 93 3000 4;
#X obj 224 90 print PD INPUT;
#X obj 224 8 lprepend Reverb Level:;
#X obj 159 67 lprepend Soundfonts Method;
#X obj 91 13 loadfloat 0;
#X obj 82 -19 route reverb_level;
#X connect 0 0 3 0;
#X connect 1 0 2 0;
#X connect 1 0 9 0;
#X connect 1 1 2 1;
#X connect 1 1 9 1;
#X connect 3 0 1 0;
#X connect 3 0 12 0;
#X connect 4 0 9 2;
#X connect 6 0 14 0;
#X connect 8 0 4 0;
#X connect 9 0 2 0;
#X connect 9 1 2 1;
#X connect 11 0 10 0;
#X connect 12 0 10 0;
#X connect 13 0 8 0;
#X connect 14 0 8 0;
#X connect 14 0 11 0;
